<?xml version="1.0" encoding="utf-8"?>
<!-- Generator: Adobe Illustrator 19.0.0, SVG Export Plug-In . SVG Version: 6.00 Build 0)  -->
<svg version="1.1"
	 id="svg2" xmlns:sodipodi="http://sodipodi.sourceforge.net/DTD/sodipodi-0.dtd" xmlns:dc="http://purl.org/dc/elements/1.1/" xmlns:inkscape="http://www.inkscape.org/namespaces/inkscape" xmlns:cc="http://creativecommons.org/ns#" xmlns:svg="http://www.w3.org/2000/svg" xmlns:rdf="http://www.w3.org/1999/02/22-rdf-syntax-ns#" inkscape:version="0.48.1 r9760" sodipodi:docname="twitter_bootstrap_logo.svg"
	 xmlns="http://www.w3.org/2000/svg" xmlns:xlink="http://www.w3.org/1999/xlink" x="0px" y="0px" viewBox="-549 546.7 290 300"
	 style="enable-background:new -549 546.7 290 300;" xml:space="preserve">
<style type="text/css">
	.st0{fill:url(#rect3050_1_);}
	.st1{fill:#FFFFFF;}
</style>
<sodipodi:namedview  pagecolor="#ffffff" bordercolor="#666666" fit-margin-left="0" borderopacity="1" gridtolerance="10" showgrid="false" fit-margin-top="0" objecttolerance="10" inkscape:cx="116.80866" inkscape:zoom="0.24896372" guidetolerance="10" inkscape:cy="407.66551" id="namedview2996" inkscape:current-layer="svg2" inkscape:window-x="0" inkscape:window-maximized="0" inkscape:window-y="0" inkscape:window-height="623" inkscape:window-width="864" fit-margin-bottom="0" inkscape:pageshadow="2" inkscape:pageopacity="0" fit-margin-right="0">
	</sodipodi:namedview>
<linearGradient id="rect3050_1_" gradientUnits="userSpaceOnUse" x1="-754.6461" y1="2623.512" x2="-738.0915" y2="2640.3557" gradientTransform="matrix(15.623 0 0 -15.623 11256.0986 41815.207)">
	<stop  offset="0" style="stop-color:#070135"/>
	<stop  offset="1" style="stop-color:#612D50"/>
</linearGradient>
<path id="rect3050" class="st0" d="M-502.1,546.7h196.5c25.9,0,46.9,21.5,46.9,48V797c0,26.5-21,48-46.9,48h-196.5
	c-25.9,0-46.9-21.5-46.9-48V594.7C-549,568.2-528,546.7-502.1,546.7z"/>
<g id="text3836" transform="scale(1.0052013,0.99482561)">
	<path id="path3841" inkscape:connector-curvature="0" class="st1" d="M-399.6,678.6c7.4,0,13-1.7,16.8-5c3.8-3.3,5.7-8.2,5.7-14.7
		c0-6.4-1.9-11.2-5.7-14.6c-3.8-3.4-9.4-5.1-16.8-5.1h-25.9v39.3L-399.6,678.6 M-398,759.8c9.4,0,16.4-2,21.1-6.1
		c4.8-4.1,7.2-10.2,7.2-18.4c0-8-2.3-14.1-7-18c-4.7-4.1-11.8-6.1-21.3-6.1h-27.5v48.6H-398 M-354.5,693c10,3,17.8,8.5,23.3,16.5
		c5.5,8,8.3,17.9,8.3,29.6c0,17.9-5.9,31.3-17.7,40c-11.8,8.8-29.8,13.2-54,13.2h-77.7V606.7h70.2c25.2,0,43.4,3.9,54.7,11.7
		c11.3,7.8,17,20.3,17,37.4c0,9-2.1,16.7-6.2,23.1C-340.7,685.3-346.7,690-354.5,693"/>
</g>
</svg>
