<?xml version="1.0" encoding="utf-8"?>
<!-- Generator: Adobe Illustrator 19.0.0, SVG Export Plug-In . SVG Version: 6.00 Build 0)  -->
<svg version="1.1" id="svg_html5" xmlns="http://www.w3.org/2000/svg" xmlns:xlink="http://www.w3.org/1999/xlink" x="0px" y="0px"
	 viewBox="0 0 297.6 283.5" style="enable-background:new 0 0 297.6 283.5;" xml:space="preserve">
<style type="text/css">
	.st0{fill:#E34D26;}
	.st1{fill:#010101;}
	.st2{fill:#222222;}
	.st3{fill:#E3481D;}
	.st4{fill:#E23F06;}
	.st5{fill:#E3471B;}
	.st6{fill:#E23F07;}
	.st7{fill:#E34413;}
	.st8{fill:#F06529;}
	.st9{fill:#EAEAEA;}
	.st10{fill:#E34A21;}
	.st11{fill:#E8C9C4;}
	.st12{fill:#E34311;}
	.st13{fill:#E34818;}
	.st14{fill:#E3481C;}
	.st15{fill:#E3430F;}
	.st16{fill:#EAF2F3;}
	.st17{fill:#E34920;}
	.st18{fill:#FEFEFE;}
	.st19{fill:#E34D27;}
	.st20{fill:#E46140;}
	.st21{fill:#EF5C13;}
	.st22{fill:#F05E1A;}
	.st23{fill:#F05F1C;}
	.st24{fill:#EF5909;}
	.st25{fill:#EF5D18;}
	.st26{fill:#EDEFEF;}
	.st27{fill:#EF5700;}
</style>
<path class="st0" d="M216.1,228.9c0.1,7.9,0.1,7.8-7.3,9.9c-18.2,5-36.4,10-54.5,15.1c-0.8,0.2-1.4,0.7-2.1,1c-1,0-2,0-3,0
	c-14.7-5.2-29.9-8.4-44.8-12.8c-5.2-1.6-10.6-2.9-15.8-4.3c-1.8-0.5-3.3-1-3.4-3.5c-0.1-4.1-0.5-8.3-0.8-12.4
	c0.5-1.7,0.9-3.3-0.3-4.9c-1-1.6-0.8-3.3-0.7-5.1c0.7-1.8,0.2-3.7,0.4-5.6c0-0.9,0-1.9,0-2.7c-0.2,0.5,0.1,1.2-0.1,1.9
	c-0.2,0.2-0.3,0.3-0.5,0.5c-2.1-13.1-2.5-26.4-3.8-39.6c-0.5-5.8-1.6-11.5-1.2-17.4c0.5-1.8,0.3-3.5-0.7-5.1c-0.1-1.7-0.2-3.3-0.3-5
	c1.1-1.3,0.2-2.9,0.6-4.3c-0.4-0.2-0.5-0.2-0.4,0c0.4,0.9,0.5,1.8-0.4,2.6c-1.2-5.4-1.3-10.9-1.7-16.4c0.5-1.7,0.9-3.3-0.3-4.9
	c-1-1.6-0.8-3.3-0.7-5.1c0.4-2,0.9-4-0.3-5.9c-1.7-9.3-1.8-18.8-2.8-28.2c-0.2-1.9,0.5-2.8,2.5-2.7c0.8,0.1,1.7,0,2.5,0
	c49.6,0,99.2,0.1,148.8-0.1c4.7,0,5.6,1.3,5,5.6c-1.1,8.2-1.8,16.5-2.6,24.7c-0.9-0.9-0.9-1.9-0.7-2.1c0,0.4,0,1.6,0,2.8
	c0.2,2-0.4,4,0.4,5.9c0.1,1.7,0.3,3.5-0.7,5.1c-1.1,1.6-0.7,3.3-0.3,4.9c-0.8,9.1-1,18.2-2.8,27.2c-0.9-1-0.5-2.2-0.6-3.6
	c0,1.4-0.3,2.6,0.6,3.6c0.1,3.8,0.2,7.5-0.9,11.2c-0.5-0.4-0.9-0.9-0.2-1.5c-0.4,0.2-0.6,0.5-0.5,1c0.1,1.1-0.4,2.2,0.5,3.2
	c-0.8,14.5-1.9,29-3.8,43.4c-0.9-0.9-0.9-1.9-0.7-2.1c0,0.4,0,1.6,0,2.8c0.2,2-0.4,4,0.4,5.9c0.1,1.7,0.3,3.5-0.7,5.1
	c-1.1,1.6-0.7,3.3-0.3,4.9c0.1,1.8,0.3,3.7-0.7,5.4c-1-0.8-0.7-1.8-0.6-2C215.9,226,215.1,227.5,216.1,228.9z"/>
<path class="st1" d="M186.1,29.9c0,9-0.1,18,0.2,27c0.2,4.9-3.2,3-5.4,3.2c-2.5,0.2-5.2,0.7-4.7-3.5c0.3-3.1,0.1-6.2-0.9-9.8
	c-1.5,2.2-3.1,4.4-4.5,6.7c-1.3,2.3-2.2,1.9-3.4-0.1c-1.5-2.4-3-4.8-4.5-7.1c-1.3-0.5-1.3,0.5-1.3,1.3c-0.1,2.3,0,4.6,0,7
	c0,4.3-4.1,6.7-7.9,4.7c-0.8-0.4-1.1-1.2-1.1-2.1c0.3-9.1-0.6-18.2,0.5-27.3c3.3,0,6.7,0,10,0c2.2,1.2,3,3.5,4.1,5.5
	c1.2,2.1,2.4,2.7,3.8,0.2c1.2-2,2.3-4.1,4-5.6C178.8,29.9,182.4,29.9,186.1,29.9z"/>
<path class="st1" d="M115.1,29.9c0,9-0.1,18,0.2,26.9c0.2,4.9-3.2,3.1-5.4,3.3c-2.4,0.2-5.1,0.7-4.8-3.5c0.2-2.8,2-6.9-4.1-6.7
	c-4,0.1-5.7,1-5.3,5.3c0.2,1.6,1.2,4.2-1.2,4.8c-2.5,0.6-5.3,0.4-7.9,0.1c-1-0.1-0.7-1.7-0.7-2.7c0-9.1,0.1-18.3,0.2-27.4
	c3.3,0,6.7,0,10,0c1.6,1.6,1.3,3.7,1.5,5.6c0.2,2,1.3,2.9,3.3,2.9c1.8-0.1,2.6-1.2,2.8-2.9c0.2-1.9-0.1-4,1.5-5.6
	C108.4,29.9,111.8,29.9,115.1,29.9z"/>
<path class="st1" d="M148.1,29.9c-0.1,1.1-0.4,2.3-0.3,3.4c0.6,4.7-0.4,7.7-6.1,6.6c-2.6-0.5-3,0.9-3,3.2c0.1,4.6-0.1,9.3,0.1,13.9
	c0.1,4.9-3.5,2.8-5.7,3c-2.1,0.2-4.8,1.1-4.6-3c0.3-4.6,0-9.3,0.1-13.9c0-2.2-0.5-3.7-3-3.2c-5.9,1.2-6.6-2-5.9-6.6
	c0.2-1.1,0.2-2.3,0.3-3.4C129.4,29.9,138.8,29.9,148.1,29.9z"/>
<path class="st1" d="M201.1,29.9c0.1,5.6,0.3,11.3,0.3,16.9c0,2.7,0.9,3.6,3.4,3.4c2-0.2,4,0.2,6-0.1c3.9-0.5,5,0.9,5.1,4.9
	c0.1,4.2-1.1,5.5-5.2,5.2c-4.8-0.4-9.7-0.3-14.5,0c-3.8,0.2-5.2-0.7-5.1-4.8c0.3-8.5,0-17,0-25.5C194.4,29.9,197.8,29.9,201.1,29.9z
	"/>
<path class="st2" d="M153.1,29.9c0,7.8,0,15.5,0.1,23.3c0,2.8-1,6,4.1,5.9c5.2-0.1,3.7-3.5,3.8-6.1c0.1-2.1-0.1-4.3,0.1-6.4
	c0.1-1.3,0.9-1.7,1.8-0.3c-1.7,3.4-0.8,7.1-0.7,10.7c0.1,4.3-2.6,3.4-4.9,3.3c-2.4-0.1-5.5,1.2-5.3-3.4c0.3-9,0.1-17.9,0.1-26.9
	C152.4,29.9,152.8,29.9,153.1,29.9z"/>
<path class="st3" d="M77.4,143.9c3.4,1.3,1.7,3.2,0.7,5.1C77.3,147.3,77.2,145.6,77.4,143.9z"/>
<path class="st4" d="M226.9,110.8c-1.6-1.8-0.5-4-0.8-5.9c0.3-0.5,0.7-0.5,1.1,0C227.1,106.9,227,108.9,226.9,110.8z"/>
<path class="st4" d="M74,104.9c1.8,1.9,1.5,3.9,0.3,5.9C74.2,108.9,74.1,106.9,74,104.9z"/>
<path class="st5" d="M216.1,228.9c-1.7-1.4-0.7-3.2-0.3-4.9c0.2,1.1,0.3,2.2,0.5,3.3C216.2,227.8,216.2,228.3,216.1,228.9z"/>
<path class="st3" d="M76.9,137.2c0.1-1.1,0.3-2.2,0.5-4.3c0.8,2.8,1.2,4.4-0.3,6C77,138.3,77,137.8,76.9,137.2z"/>
<path class="st4" d="M84.1,205.9c-0.3,2,0.8,4.1-0.8,5.9c-0.1-2-0.2-3.9-0.3-5.9c0,0,0.3-0.1,0.3-0.1
	C83.6,205.4,83.8,205.5,84.1,205.9z"/>
<path class="st4" d="M217.9,211.8c-1.6-1.8-0.5-4-0.8-5.9c0.3-0.5,0.7-0.5,1.1,0C218.1,207.9,218,209.9,217.9,211.8z"/>
<path class="st6" d="M226,120.9c-1.3-1.7-1.4-3.4,0.3-4.9C226.1,117.6,226.1,119.2,226,120.9z"/>
<path class="st6" d="M75,115.9c1.7,1.6,1.5,3.2,0.3,4.9C75.1,119.2,75.1,117.6,75,115.9z"/>
<path class="st7" d="M222.1,161.9c-1.1-0.7-1-1.9-1-3c0-0.4-0.1-1.1,0.5-0.9c0.3,0.1,0.4,0.8,0.6,1.2
	C222.2,160.1,222.2,161,222.1,161.9z"/>
<path class="st3" d="M227.2,104.9c-0.4,0-0.7,0-1.1,0c0-1.3,0-2.5,0-4c1.6,1,0.7,2.4,1.2,3.4C227.5,104.5,227.4,104.7,227.2,104.9z"
	/>
<path class="st3" d="M218.2,205.9c-0.4,0-0.7,0-1.1,0c0-1.3,0-2.5,0-4c1.6,1,0.7,2.4,1.2,3.4C218.5,205.5,218.4,205.7,218.2,205.9z"
	/>
<path class="st6" d="M84,216.9c1.7,1.6,1.5,3.2,0.3,4.9C84.1,220.2,84.1,218.6,84,216.9z"/>
<path class="st6" d="M217,221.8c-1.3-1.7-1.4-3.4,0.3-4.9C217.1,218.6,217,220.2,217,221.8z"/>
<path class="st8" d="M150.1,105.9c0-4.8,0.1-9.7,0-14.5c-0.1-3.1,1.1-4.5,4.4-4.5c19.1,0.1,38.3,0.1,57.4,0c3.2,0,4.4,1.2,4,4.6
	c-1.1,9.7-1.8,19.4-2.8,29.1c-1.3,13.2-2.6,26.3-3.8,39.5c-1.2,13-2.1,26-3.2,39.1c-0.7,8.2-1.4,16.5-2,24.7
	c-0.2,2.7-2.2,3.1-4.1,3.6c-11.2,3.2-22.3,6.3-33.5,9.4c-3.8,1.1-7.7,1.9-11.5,3.3c-3.8,1.4-5.2,0.4-5-3.6c0.2-4.5-0.1-9,0.3-13.5
	c0.1-1.5-0.4-2.1-1.2-2.9c0.2-0.5,0.6-0.9,1.1-1.1c11.4-2.9,22.7-6.3,34.1-9c4.7-1.1,6.2-3,6.5-8c0.1-2.1-0.1-4.3,1-6.3
	c1.2-1.7,1.1-3.5,0.5-5.3c-0.4-1.7-0.2-3.4,0.6-5c1.4-1.8,0.6-3.7,0.2-5.6c0.4-5.4-0.4-11,2.3-16c2.1-0.1,0.9,1.5,1.2,2.4
	c0.7-2.2-1-3.7-1.3-5.6c-0.5-2.4-0.4-4.9-0.2-7.3c0.2-1.6,0.7-3.3-1.1-4.4c-5.2-1.3-10.5-0.4-15.8-0.5c-7.1-0.2-14.2,0-21.3-0.1
	c-2,0-4,0.2-5.8-1c-2.5-3.8-1.2-8-1.4-12.1c-0.3-5.2-0.5-5.7-5.7-5.7c-5-0.1-9.9,0-14.9,0c-2,0-4,0.1-5.7-1.2
	c-0.5-0.6-0.5-1.1,0-1.7c3.2-1.8,6.8-0.9,10.2-1c5.4-0.2,10.9,0,16.3-0.1c13.1-0.2,26.1,0,39.2-0.1c7.3,0,7.3,0,9.5-6.8
	c2-0.3,2-0.3,0.7-4.8c-0.4-1.7-0.3-3.4-0.8-5c-0.2-0.5-0.6-0.8-1-1.1c-12.5-0.7-24.9-0.1-37.3-0.3c-2.8,0-5.6,0.3-8.4-0.4
	C151,106.7,150.5,106.4,150.1,105.9z"/>
<path class="st9" d="M123.1,127c0,0.3,0,0.6,0.1,0.8c2.3,4.8,1.3,10.2,2.3,15.2c0.1,1.3-0.3,2.7,0.7,3.8c4.7,1.4,9.5,0.3,14.2,0.7
	c3.1,0.2,6.3-0.5,9.3,0.8c0.5,0.3,0.9,0.8,1.2,1.4c1,3.8,0.5,7.6,0.5,11.4c-0.1,5.1-1.1,6.1-6.2,6.2c-11.1,0.1-22.2,0-33.3,0.1
	c-1.3,0-2.7,0-4,0.1c-0.7,0-1.3-0.1-1.8-0.5c-1.4-14-2.7-28-4.1-41.9c-0.2-1.8,0.1-3.7-0.8-5.3c-0.8-0.5-0.7-1.1-0.1-1.7
	c0-1.3,0.1-2.7,0.1-4c0.4-1.7,0.9-3.3-0.3-4.9c-0.2-0.1-0.5-0.2-0.7-0.3c0-0.2,0-0.3,0-0.5c0.3-0.4,0.6-0.7,0.9-1.1
	c1.5-1.1,3.2-0.6,4.8-0.6c15,0,30.1,0,45.1,0c14.7,0,29.5,0,44.2,0c1.6,0,3.3-0.5,4.8,0.6c0,0.3,0,0.6-0.1,0.9
	c-2.1,1.9-4.7,1.5-7.1,1.5c-11.6,0.1-23.3,0-34.9,0c-5.8,0-6.1,0.5-6.3,6.2c-0.1,3.4,0.8,7-1.3,10.2c-7.3,1-14.7,0.2-22,0.5
	C126.6,126.5,124.7,125.7,123.1,127z"/>
<path class="st9" d="M150.1,219.9c-0.3,0.1-0.7,0.2-1,0.3c-11.7-3.3-23.4-7-35.2-9.8c-3.9-0.9-4.7-2.6-4.7-5.8
	c-0.1-2.3,0.2-4.6-0.9-6.8c-1.1-1.5-0.6-3.2-0.3-4.8c0.2-1.8,0.2-3.7-0.7-5.4c-0.9-0.5-0.7-1.1-0.2-1.7c0.2-8,0.2-8,8.1-8.2
	c1,0,1.9-0.2,2.9-0.4c0.4,0,0.8,0,1.2,0c7.2,0.9,7.2,0.9,8.2,8.3c1.1,8.1,1.1,8.2,9.1,10.1c4.8,1.1,9.4,3.3,14.4,3.2
	c1-1,2.1-0.9,3.1,0c-2.7,3.5-2.8,7.6-2.7,11.8C151.5,213.8,152.3,217.1,150.1,219.9z"/>
<path class="st8" d="M154.1,198.9c-1,0-2,0-3,0c-1.9-4.5-0.8-9.1-1-13.7c-0.2-5.5-0.1-10.9-0.1-16.4c-0.3-0.7-0.1-1.2,0.5-1.6
	c8.1-1.2,16.2-1.4,24.3,0.1c3.1,5.5,0.3,10.9-0.2,16.4c-1.6,2.4-1.4,4.9-0.8,7.6c0.2,1.9-0.6,3.3-2.4,3.8
	C165.8,196.7,160.3,199.2,154.1,198.9z"/>
<path class="st10" d="M72.8,80c-1.5-4.1,0.1-5.1,3.8-5.1c49.3,0.1,98.6,0.1,148,0c3.8,0,5.2,1.2,3.9,6.2c-0.2-4.4-1.8-5.2-4.9-5.2
	c-48.7,0.1-97.3,0.1-146,0C74.9,75.9,72.4,75.8,72.8,80z"/>
<path class="st11" d="M174.9,168.1c-8.3,0-16.6,0-24.9,0c-14.7,0.4-29.3,0.8-44-0.2c-0.1-0.3-0.1-0.7,0-1c0.3,0,0.7-0.1,1-0.1
	c12.6-0.9,25.3-0.1,37.9-0.4c2,0,4,0.3,5.9-0.5c6.9-1.1,13.8-0.6,20.7-0.3C173.1,165.6,175.2,165.5,174.9,168.1z"/>
<path class="st12" d="M151.1,106.8c-16.7,0.1-33.3,0.1-50,0.2c1.4-1.8,3.4-1.1,5.1-1.1c14.6-0.1,29.3,0,43.9-0.1c0.3,0,0.6,0,1,0
	c0.3,0.2,0.4,0.4,0.3,0.6C151.3,106.7,151.2,106.8,151.1,106.8z"/>
<path class="st13" d="M106.1,167.8c14.7,0.1,29.3,0.1,44,0.2c0,0.3,0,0.6,0,0.8c-13,0-25.9,0-38.9,0
	C109.5,168.9,107.5,169.5,106.1,167.8z"/>
<path class="st14" d="M119.3,177.3c-0.4,0-0.8,0-1.2,0c1.5-2.6,3.8-0.9,5.8-0.8C122.4,176.7,120.9,177,119.3,177.3z"/>
<path class="st3" d="M101.1,117.9c0,0.6,0.1,1.2,0.1,1.7c-0.1,1.1-0.2,2.2-0.5,4.6C100,121.1,99.6,119.4,101.1,117.9z"/>
<path class="st3" d="M107.1,185.9c0.1,0.6,0.1,1.1,0.2,1.7c-0.1,1.1-0.3,2.2-0.5,4.4C106,189.1,105.6,187.4,107.1,185.9z"/>
<path class="st15" d="M107.9,192.9c0.1,1.6,0.2,3.2,0.3,4.8C105.9,196.3,107.1,194.6,107.9,192.9z"/>
<path class="st16" d="M101,108.9c1.8,1.5,1.5,3.2,0.3,4.9C101.2,112.2,101.1,110.6,101,108.9z"/>
<path class="st3" d="M223.2,148c-1.4-1.2-1.5-2.6-0.4-4.7C223,145.2,223.1,146.6,223.2,148C223.2,148,223.2,148,223.2,148z"/>
<path class="st3" d="M100.3,108.1c0.1,0.2,0.1,0.3,0,0.5c-0.1,0.8-0.2,1.5-0.4,2.5c-1.1-1.2-0.9-2.3-0.4-3.4c0-0.1,0.3,0,0.4,0
	C100,107.9,100.1,108,100.3,108.1z"/>
<path class="st17" d="M227.9,87.9c0,1,0,2,0,3.3C226.7,90,227.1,89,227.9,87.9z"/>
<path class="st17" d="M82.5,188.4c0.8,1.5,0.8,2.5,0.2,3.6C81.8,191,82.1,190,82.5,188.4z"/>
<path class="st17" d="M218.7,192c-0.9-1.1-0.7-2.1-0.2-3.3C219.4,189.8,219.2,190.9,218.7,192z"/>
<path class="st17" d="M74.1,88.1C74,89,74,90.6,73.8,90.6c-1.2,0.1-0.5-0.9-0.7-1.5c-0.1-0.4,0.2-0.9,0.3-1.3
	C73.6,87.9,73.9,88,74.1,88.1z"/>
<path class="st3" d="M84.1,205.9c-0.3,0-0.6,0-0.8,0c0-1.3,0-2.6,0-3.9c0.2,0,0.4,0,0.7,0C84,203.3,84,204.6,84.1,205.9z"/>
<path class="st18" d="M174.9,168.1c-1.8-2.2-4.3-1-6.5-1.1c-5.8-0.2-11.6-0.1-17.4-0.1c-1-4.2-0.2-8.5-0.5-12.7
	c-0.1-1.8,0.5-3.6-0.5-5.3l0,0c-0.3-0.7-0.1-1.2,0.7-1.4c15.1,0.1,30.2-0.4,45.3,0.3c1.8,4.4-0.9,8.8,0,13.1
	c0.6,0.9,0.9,1.8-0.2,2.7c-1.3,5.7-1.4,11.6-1.7,17.4c0.4,1.7,1,3.4-0.3,4.9c-0.9,1.6-0.8,3.4-0.6,5.1c0.4,1.7,0.8,3.3-0.3,4.9
	c-1.2,2.2-0.9,4.5-0.9,6.8c0.1,4.3-1.3,7.1-5.8,8.2c-11.8,2.9-23.5,6.1-35.2,9.1c-0.3,0.1-0.6-0.1-1-0.1c0-4.8,0.2-9.6-0.1-14.4
	c-0.2-3.4,0.7-5.6,4-6.5c5.2-1.5,10.3-3,15.5-4.4c1.9-0.5,4-0.8,3.4-3.7c-0.3-2.3-1-4.7,0.3-6.9
	C174.5,178.7,174.6,173.4,174.9,168.1z"/>
<path class="st18" d="M150.1,125.9c0-4.5,0.2-9,0-13.5c-0.2-3.5,1-4.6,4.5-4.6c15.1,0.2,30.3,0.1,45.4,0c0.1,2,0.2,4,0.2,6
	c0.4,1.2,0.9,2.5-0.3,3.6c-0.1,0.3-0.4,0.6-0.4,0.9c-1.4,8.8-1.4,8.8-10.5,8.8c-12.9-0.1-25.9-0.2-38.8-0.3
	c-0.4-0.2-0.5-0.5-0.4-0.7C149.9,126,150,125.9,150.1,125.9z"/>
<path class="st19" d="M124.1,143.9c-0.4-5.3-1.9-10.6-0.9-16c8,0,16,0.1,23.9,0c3.1-0.1,4.1,1,4,4c-0.2,5-0.1,10-0.1,15
	c-0.7,0.6-1.6,0.7-2.4,0.7c-5.6-0.5-11.2-0.1-16.8-0.3c-2.1-0.1-4.3,0.2-6.2-1.2C125,145.4,124.6,144.6,124.1,143.9z"/>
<path class="st20" d="M124.1,143.9c0.3,0.3,0.7,0.7,1,1c1.1,2.1,3.1,1.4,4.8,1.5c6.4,0.3,12.8-0.6,19.1,0.5c0.7,0,1.3,0,2,0
	c13.3,0,26.5,0,39.8,0.1c1.8,0,3.7-0.6,5.2,0.8c-15.3,0.1-30.6,0.2-45.9,0.3c-8.7,0.3-17.3,1-26-0.4
	C124.1,146.4,124.1,145.2,124.1,143.9z"/>
<path class="st21" d="M151.1,106.8c0-0.3,0-0.6,0-0.9c14.6,0,29.3,0,43.9,0c1.7,0,3.7-0.7,5.1,1.1
	C183.8,106.9,167.4,106.9,151.1,106.8z"/>
<path class="st16" d="M150.1,125.9c0,0.3,0,0.7,0,1c-9,0-18,0.1-27,0.1c1.2-1.7,3-1.1,4.6-1.1C135.2,125.9,142.6,125.9,150.1,125.9z
	"/>
<path class="st22" d="M199.9,117.5c0.1-1.2,0.2-2.4,0.3-3.6c1.6,1.8,0.8,3.9,0.7,5.9C199.6,119.4,200.3,118.2,199.9,117.5z"/>
<path class="st23" d="M195.9,163.5c0.1-0.9,0.1-1.8,0.2-2.7c1.8,1.7,0.9,3.8,0.4,5.9C196.3,165.7,196.1,164.6,195.9,163.5z"/>
<path class="st24" d="M193,195.9c0.1-1.6,0.2-3.3,0.3-4.9C194.5,192.7,194.7,194.3,193,195.9z"/>
<path class="st25" d="M193.9,185.8c0.1-1.6,0.2-3.3,0.3-4.9C195.5,182.6,195.7,184.3,193.9,185.8z"/>
<path class="st26" d="M150.1,148.9c2.2,5.9,0.5,12,1,18c-14.6,0-29.3-0.1-43.9-0.1c1.5-1.5,3.5-0.9,5.2-0.9
	c10.8-0.1,21.6-0.3,32.3,0.1c4.6,0.1,5.8-1.4,5.4-5.7C149.8,156.5,150.1,152.7,150.1,148.9z"/>
<path class="st16" d="M124.1,147.7c8.7,0.1,17.3,0.2,26,0.4c0,0.3,0,0.6,0,0.8c-7.1,0-14.3,0-21.4,0
	C127.1,148.9,125.3,149.5,124.1,147.7z"/>
<path class="st27" d="M173.3,183.9c-0.1,2.3-0.2,4.6-0.3,6.9C171.7,188.5,171.3,186.1,173.3,183.9z"/>
<path class="st17" d="M149.1,146.9c-6.6,0-13.1,0.1-19.7,0c-1.6,0-3.8,0.9-4.3-1.9c5.8,2,11.9,0.5,17.8,1
	C145,146.1,147.3,145.1,149.1,146.9z"/>
</svg>
