<?xml version="1.0" encoding="utf-8"?>
<!-- Generator: Adobe Illustrator 19.0.0, SVG Export Plug-In . SVG Version: 6.00 Build 0)  -->
<svg version="1.1" id="Capa_1" xmlns="http://www.w3.org/2000/svg" xmlns:xlink="http://www.w3.org/1999/xlink" x="0px" y="0px"
	 viewBox="0 0 240 234" style="enable-background:new 0 0 240 234;" xml:space="preserve">
<style type="text/css">
	.st0{fill:#FE7B00;}
	.st1{fill:#FEFEFE;}
	.st2{fill:#261300;}
	.st3{fill:#FE7C00;}
</style>
<path class="st0" d="M0.2,234.2c0-77.6,0-155.3,0-232.9c0-0.9,0.2-1.1,1.1-1.1c79.6,0,159.3,0,238.9,0c0.2,0.4,0.1,0.9,0.1,1.3
	c0,77.1,0,154.2,0,231.4c0,1.6,0.2,1.5-1.5,1.5c-79.1,0-158.2,0-237.2,0C1.2,234.4,0.7,234.5,0.2,234.2z"/>
<path class="st1" d="M0.2,234.2c79.5,0,158.9,0,238.4,0c1.6,0,1.6,0,1.6-1.6c0-77.5,0-154.9,0-232.4c0.1,0.1,0.3-0.1,0.2,0.1
	c0,0.3,0,0.6,0,1c0,77.4,0,154.7,0,232.1c0,0.9-0.2,1.1-1.1,1.1c-79.4,0-158.7,0-238.1,0C1,234.5,0.5,234.7,0.2,234.2z"/>
<path class="st2" d="M120.2,224.2c-36.1,0-72.2,0-108.4,0c-1.8,0-1.6,0.2-1.6-1.6c0-70.2,0-140.5,0-210.7c0-1.2,0.3-1.6,1.5-1.6
	c72.3,0,144.6,0,216.8,0c1.3,0,1.5,0.4,1.5,1.6c0,70.3,0,140.6,0,210.8c0,1.2-0.2,1.5-1.5,1.5C192.6,224.2,156.4,224.2,120.2,224.2z
	"/>
<path class="st3" d="M99.2,53.5c3.3,0,6.6,0,9.8,0c1.1,0,1.5,0.3,1.9,1.4c6.1,20.9,12.3,41.8,18.5,62.7c4.3,14.6,8.6,29.2,12.9,43.8
	c0.7,2.3,0.6,2.4-1.8,2.4c-5,0-10,0-15,0c-1.1,0-1.6-0.3-1.9-1.4c-2.6-9.5-5.2-18.9-7.7-28.4c-0.2-0.9-0.6-1.1-1.4-1.1
	c-9.9,0-19.8,0-29.8,0c-0.9,0-1.1,0.3-1.4,1.1c-2.5,9.4-4.9,18.8-7.4,28.1c-0.5,1.8-0.5,1.8-2.2,1.8c-4.4,0-8.8,0-13.2,0
	c-2.2,0-2.4-0.2-1.8-2.3c2.2-7.6,4.4-15.3,6.5-22.9c7.2-25.1,14.3-50.3,21.5-75.4c0.7-2.5,0.9-5.1,1-7.7c0.1-1.9,0.1-1.9,2-1.9
	C92.9,53.5,96,53.5,99.2,53.5z"/>
<path class="st3" d="M175.5,123.2c0,13,0,25.9,0,38.9c0,1.7,0,1.7-1.7,1.7c-4.9,0-9.8,0-14.6,0c-1.5,0-1.7-0.2-1.7-1.7
	c0-25.9,0-51.9,0-77.8c0-1.4,0.2-1.7,1.7-1.7c4.9,0,9.8,0,14.8,0c1.5,0,1.6,0.2,1.6,1.7C175.5,97.1,175.5,110.2,175.5,123.2z"/>
<path class="st3" d="M176.9,61c0,6.3-4.1,10.2-10.6,10.2c-6.2,0-10-4-9.9-10.4c0-6.1,4.2-10.2,10.4-10.1
	C172.8,50.7,176.9,54.9,176.9,61z"/>
<path class="st2" d="M99.5,69.8c2.3,10.1,4.9,20.1,7.5,30.1c1.3,5.1,2.6,10.2,4,15.3c0.3,1,0.1,1.3-1,1.3c-7,0-14,0-21,0
	c-1.1,0-1.2-0.3-0.9-1.2c3.2-11.9,6.4-23.9,9.2-35.9c0.7-2.8,1.2-5.7,1.8-8.5C99.2,70.4,99.2,70.1,99.5,69.8z"/>
</svg>
