<?xml version="1.0" encoding="utf-8"?>
<!-- Generator: Adobe Illustrator 19.0.0, SVG Export Plug-In . SVG Version: 6.00 Build 0)  -->
<svg version="1.1" id="Capa_1" xmlns="http://www.w3.org/2000/svg" xmlns:xlink="http://www.w3.org/1999/xlink" x="0px" y="0px"
	 viewBox="0 0 439.4 396.9" style="enable-background:new 0 0 439.4 396.9;" xml:space="preserve">
<style type="text/css">
	.st0{fill:#141B28;}
	.st1{fill:#4183AF;}
</style>
<g id="XMLID_1_">
	<path id="XMLID_51_" class="st0" d="M127.5,311.1L127.5,311.1l-3.4,11.9L127.5,311.1L127.5,311.1z"/>
	<path id="XMLID_50_" class="st0" d="M144.8,336.9l-3.7,0L144.8,336.9z"/>
	<path id="XMLID_49_" class="st0" d="M143.8,354.6L143.8,354.6l-22.1,0.1L143.8,354.6L143.8,354.6z"/>
	<path id="XMLID_48_" class="st0" d="M148.5,336.9l-3.7,0L148.5,336.9z"/>
	<path id="XMLID_47_" class="st0" d="M145.8,353.1l3.9-14.7L145.8,353.1L145.8,353.1L145.8,353.1z"/>
	<path id="XMLID_46_" class="st0" d="M227.2,285.4l-7.2,33.8C220.1,319.1,227.2,285.4,227.2,285.4z"/>
	<path id="XMLID_45_" class="st0" d="M208.8,285.4l-5.5,25.2L208.8,285.4L208.8,285.4z"/>
	<path id="XMLID_44_" class="st0" d="M226,283.9h-15.4c-0.9,0-1.7,0.7-1.9,1.5l-5.5,25.2l-5.5,25.2c-0.2,0.8-1,1.5-1.9,1.5h-10.9
		c-10.8,0-9.5-7.4-7.3-17.6c0-0.1,0-0.2,0.1-0.3l0.2-1.3c0-0.1,0-0.2,0-0.2l0.5-2.6l0.5-2.8c0.2-0.8,0.4-2.1,0.6-2.9l2.5-12.1
		l2.5-12.1c0.2-0.8-0.4-1.5-1.2-1.5h-15.8c-0.9,0-1.7,0.7-1.9,1.5l-3.4,16.1l-3.4,16.1c0,0,0,0,0,0l-0.3,1.5
		c-3.9,17.8-2.9,34.8,18.3,35.3c0.3,0,0.6,0,0.6,0H211c0.9,0,1.7-0.7,1.9-1.5l7.2-33.8l7.2-33.8C227.4,284.6,226.9,283.9,226,283.9
		L226,283.9z"/>
	<path id="XMLID_43_" class="st0" d="M287.3,337.5c0.9,0,1.4,0.7,1.2,1.5l-1.5,7.3"/>
	<path id="XMLID_42_" class="st0" d="M285.5,353.6l1.5-7.3L285.5,353.6C285.5,353.6,285.5,353.6,285.5,353.6L285.5,353.6z"/>
	<path id="XMLID_41_" class="st0" d="M283.7,355.2C283.7,355.2,283.7,355.1,283.7,355.2c-4.5,0-18.1,0.1-28.3,0.1
		C267.8,355.3,283.7,355.2,283.7,355.2L283.7,355.2z"/>
	<path id="XMLID_40_" class="st0" d="M246.2,328.1c0-0.8,0.9-2.2,1.7-2.2l-1.9,0C245.2,334.6,246.2,328.1,246.2,328.1L246.2,328.1z"
		/>
	<path id="XMLID_39_" class="st0" d="M256.8,355.3c-0.1,0-0.2,0-0.3,0C256.6,355.3,256.7,355.3,256.8,355.3z"/>
	<path id="XMLID_38_" class="st0" d="M287.3,337.5c0.9,0,1.4,0.7,1.2,1.5l-1.5,7.3l-0.2,1.2"/>
	<path id="XMLID_37_" class="st0" d="M264,355.3L264,355.3L264,355.3z"/>
	<path id="XMLID_36_" class="st0" d="M260.3,355.3H260H260.3z"/>
	<path id="XMLID_35_" class="st0" d="M259.1,355.3c-0.1,0-0.2,0-0.4,0C258.9,355.3,259,355.3,259.1,355.3z"/>
	<path id="XMLID_34_" class="st0" d="M257.9,355.3h-0.3H257.9z"/>
	<path id="XMLID_33_" class="st0" d="M260,355.3c-0.3,0-0.6,0-0.9,0C259.4,355.3,259.7,355.3,260,355.3z"/>
	<path id="XMLID_32_" class="st0" d="M264,355.3c-1.2,0-2.5,0-3.7,0C261.5,355.3,262.7,355.3,264,355.3z"/>
	<path id="XMLID_31_" class="st0" d="M283.7,355.1L283.7,355.1c-3.3,0-11.5,0.1-19.6,0.1C272.2,355.2,280.4,355.2,283.7,355.1z"/>
	<path id="XMLID_30_" class="st0" d="M285.5,353.6l1.2-6.1L285.5,353.6C285.5,353.6,285.5,353.6,285.5,353.6L285.5,353.6z"/>
	<path id="XMLID_29_" class="st0" d="M258.7,355.3h-0.8H258.7z"/>
	<path id="XMLID_28_" class="st0" d="M256.5,355.3h-1.1H256.5z"/>
	<path id="XMLID_27_" class="st0" d="M257.6,355.3h-0.9H257.6z"/>
	<path id="XMLID_26_" class="st0" d="M33,328.3l2.4-10.6l-2.7,12.1L30,342.1l2.3-10.8C32.5,330.5,32.8,329.1,33,328.3L33,328.3z"/>
	<path id="XMLID_25_" class="st0" d="M61.5,283.7H44.7c-0.9,0-1.7,0.7-1.9,1.5l-1.6,7.1l-1.6,7.1c-0.2,0.8,0.4,1.5,1.2,1.5h17
		c0.9,0,1.7-0.7,1.9-1.5l1.5-7.1l1.5-7.1v0C62.9,284.4,62.4,283.7,61.5,283.7L61.5,283.7z"/>
	<path id="XMLID_24_" class="st0" d="M57.9,307.2L57.9,307.2l-4.9,22.9L57.9,307.2z"/>
	<path id="XMLID_23_" class="st0" d="M8.9,383c0,0,8.5,0.1,13.9,0.1C18.7,383.1,11.9,383,8.9,383C8.9,383,8.9,383,8.9,383L8.9,383z"
		/>
	<path id="XMLID_22_" class="st0" d="M37.8,307.2l-2.4,10.6C35.4,317.7,37.8,307.2,37.8,307.2z"/>
	<path id="XMLID_21_" class="st0" d="M56.7,305.7h-17c-0.9,0-1.7,0.7-1.9,1.5l-2.4,10.6L33,328.3c-0.2,0.8-0.5,2.2-0.7,3L30,342.1
		l-2.3,10.8c-0.2,0.8-0.5,2.2-0.8,3c0,0-3.2,9.4-8.5,9.3c-0.2,0-0.4,0-0.7,0c-2.6,0-4.6-0.1-4.6-0.1h0c-0.9,0-1.7,0.7-1.9,1.5
		l-1.8,7.4l-1.8,7.4C7.5,382.3,8,383,8.9,383c3,0,9.8,0.1,13.9,0.1c13.3,0,20.4-7.4,24.9-28.6l5.3-24.4l4.9-22.9
		C58.1,306.3,57.5,305.7,56.7,305.7L56.7,305.7z"/>
	<path id="XMLID_20_" class="st0" d="M298.1,354.4c-0.9,0-1.4-0.7-1.2-1.5l12.8-59.9"/>
	<path id="XMLID_19_" class="st0" d="M315.9,352.9l5.2-25.6L315.9,352.9z"/>
	<path id="XMLID_18_" class="st0" d="M297.1,353.7c-0.1-0.4,0-1.4,0.1-2.3l6.1-28.4l-6.4,29.9c-0.2,0.8,0.4,1.5,1.2,1.5h1.6
		C298.8,354.4,297.2,354.1,297.1,353.7L297.1,353.7z"/>
	<path id="XMLID_17_" class="st0" d="M314.9,354.1c-0.5,0.2-1.5,0.3-2.4,0.3h1.6c0.9,0,1.7-0.7,1.9-1.5l0.3-1.5
		C316,352.2,315.3,353.9,314.9,354.1L314.9,354.1z"/>
	<path id="XMLID_16_" class="st0" d="M318.5,340.1l2.3-11.3c0,0,0,0,0,0L318.5,340.1L318.5,340.1z"/>
	<path id="XMLID_15_" class="st0" d="M368.9,297l0.7,2.9c0.2,0.8-0.3,1.5-1.2,1.5"/>
	<path id="XMLID_14_" class="st0" d="M316.2,351.4l2.3-11.3L316.2,351.4z"/>
	<path id="XMLID_13_" class="st0" d="M368.2,294l0.7,3L368.2,294z"/>
	<path id="XMLID_12_" class="st0" d="M320.7,328.8c0.2-0.8,0.5-2.2,0.6-3l2.4-11.4l-2.8,12.9L320.7,328.8L320.7,328.8z"/>
	<path id="XMLID_11_" class="st0" d="M309.9,292c-0.2,0.8-0.4,1.8-0.5,2.5l-6.1,28.4l6.4-29.9L309.9,292L309.9,292z"/>
	<path id="XMLID_10_" class="st0" d="M369.6,299.9l-0.7-2.9l-0.7-3l-0.4-1.5c-1.4-5.4-5.4-8.5-14.2-8.5l-13.7,0l-12.6,0h-14.2
		c-0.9,0-1.7,0.7-1.9,1.5h0l-0.6,3l-0.7,3.5l-0.2,1l-6.4,29.9l-6.1,28.4c-0.2,0.8-0.2,1.9-0.1,2.3c0.1,0.4,1.7,0.8,2.6,0.8h12.8
		c0.9,0,1.9-0.2,2.4-0.3c0.5-0.2,1.2-1.9,1.3-2.7l2.3-11.3l2.3-11.3c0,0,0,0,0,0l0.3-1.5l2.8-12.9l2.4-11.4c0.2-0.8,1-1.5,1.9-1.5
		l40.3,0C369.3,301.4,369.8,300.8,369.6,299.9L369.6,299.9z"/>
	<path id="XMLID_9_" class="st0" d="M421.5,273.6c-0.9,0-2.2,0-3.1,0h-12.9c-0.9,0-1.9,0.6-2.4,1.3l-28.5,41.8
		c-0.5,0.7-1,0.6-1.2-0.2l-2.1-9.2c-0.2-0.8-1-1.5-1.9-1.5H351c-0.9,0-1.4,0.7-1.1,1.5l8.2,28.8c0.2,0.8,0.3,2.2,0,3l-3.6,13.9
		c-0.2,0.8,0.3,1.5,1.2,1.5h18.1c0.9,0,1.7-0.7,1.9-1.5l3.6-13.9c0.2-0.8,0.8-2.1,1.3-2.7l46.3-61.5c0.5-0.7,0.2-1.2-0.6-1.2
		L421.5,273.6L421.5,273.6z"/>
	<path id="XMLID_6_" class="st0" d="M275.8,309.7L275.8,309.7c-0.1,0.9-1,1.6-1.8,1.6h-23.2c-0.8,0-1.2-0.5-1.1-1.2c0,0,0,0,0-0.1
		c0,0,0,0,0,0c0,0,0-0.1,0-0.1c0,0,0-0.2,0.1-0.4c2.2-5.9,6.7-9.8,15.2-9.8C274.6,299.7,276.5,304.4,275.8,309.7L275.8,309.7z
		 M269,282.8c-29.8,0-36.9,18.1-40.9,36.4c-4,18.6-3.6,36.1,27.3,36.1h1.1c0.1,0,0.2,0,0.3,0h2c0.1,0,0.2,0,0.4,0c0.3,0,0.6,0,0.9,0
		h0.2c1.2,0,2.5,0,3.7,0h0.1c8.2,0,16.3-0.1,19.6-0.1c0.8,0,1.7-0.7,1.9-1.5l1.3-6.1l0.2-1.2l1.5-7.3c0.2-0.8-0.4-1.5-1.2-1.5h-27.8
		c-11,0-14.3-2.9-13.1-11.6h44.4l0,0c0,0,0,0,0,0c0.7,0,1.4-0.5,1.6-1.1c0-0.1,0.1-0.3,0.1-0.4l0,0
		C299.1,299.6,297.2,282.8,269,282.8L269,282.8z"/>
	<path id="XMLID_3_" class="st0" d="M127.9,309.6l-0.4,1.5c0,0,0,0,0,0l-3.4,11.9l-3.3,11.9c-0.2,0.8-1.1,1.5-2,1.5h-17.7
		c-13.5,0-16.7-10.5-13.5-26c3.3-15.9,9.7-25.7,22.9-26.7C128.7,282.2,132.3,294.9,127.9,309.6L127.9,309.6z M140.1,335.4
		c0,0,8.4-20.3,10.3-32c2.6-15.7-5.3-38.5-35.6-38.5c-30.2,0-43.3,21.7-48.3,45.4c-5,23.8,1.6,44.7,31.6,44.5l23.7-0.1l22.1-0.1
		c0.9,0,1.7-0.7,1.9-1.5l3.9-14.7c0.2-0.8-0.3-1.5-1.2-1.5l-3.7,0l-3.7,0c-0.7,0-1.1-0.5-1.1-1.1C140,335.6,140.1,335.5,140.1,335.4
		L140.1,335.4z"/>
	<path id="XMLID_2_" class="st0" d="M289.5,321.8c0,0.6-0.5,1-1,1c-0.6,0-1-0.5-1-1c0-0.6,0.5-1,1-1
		C289.1,320.8,289.5,321.2,289.5,321.8z"/>
</g>
<g id="XMLID_52_">
	<path id="XMLID_53_" class="st1" d="M359.3,186.5C239,354.4-23.6,164.8,104,46.6C85.8,254.9,322.8,226.9,359.3,186.5z M177,28
		c-102.1,80.8,94.8,220.7,182.3,96.4C322.8,155.4,155.1,155.4,177,28 M249.9,9.3c-18.2,74.6,80.2,83.9,109.4,65.3
		C275.4,149.2,184.3,43.5,249.9,9.3z"/>
</g>
</svg>
